<?xml version="1.0" encoding="UTF-8" standalone="no"?>
<!DOCTYPE svg PUBLIC "-//W3C//DTD SVG 1.1//EN"
 "http://www.w3.org/Graphics/SVG/1.1/DTD/svg11.dtd">
<!-- Generated by graphviz version 2.42.3 (20191010.1750)
 -->
<!-- Title: snakemake_dag Pages: 1 -->
<svg width="309pt" height="625pt"
 viewBox="0.00 0.00 309.00 625.00" xmlns="http://www.w3.org/2000/svg" xmlns:xlink="http://www.w3.org/1999/xlink">
<g id="graph0" class="graph" transform="scale(1 1) rotate(0) translate(4 621)">
<title>snakemake_dag</title>
<polygon fill="white" stroke="transparent" points="-4,4 -4,-621 305,-621 305,4 -4,4"/>
<!-- 0 -->
<g id="node1" class="node">
<title>0</title>
<path fill="none" stroke="#568ad8" stroke-width="2" stroke-dasharray="5,2" d="M82,-36C82,-36 52,-36 52,-36 46,-36 40,-30 40,-24 40,-24 40,-12 40,-12 40,-6 46,0 52,0 52,0 82,0 82,0 88,0 94,-6 94,-12 94,-12 94,-24 94,-24 94,-30 88,-36 82,-36"/>
<text text-anchor="middle" x="67" y="-15.5" font-family="sans" font-size="10.00">all</text>
</g>
<!-- 1 -->
<g id="node2" class="node">
<title>1</title>
<path fill="none" stroke="#59d856" stroke-width="2" stroke-dasharray="5,2" d="M122,-108C122,-108 12,-108 12,-108 6,-108 0,-102 0,-96 0,-96 0,-84 0,-84 0,-78 6,-72 12,-72 12,-72 122,-72 122,-72 128,-72 134,-78 134,-84 134,-84 134,-96 134,-96 134,-102 128,-108 122,-108"/>
<text text-anchor="middle" x="67" y="-87.5" font-family="sans" font-size="10.00">exonerate_fully_phased</text>
</g>
<!-- 1&#45;&gt;0 -->
<g id="edge1" class="edge">
<title>1&#45;&gt;0</title>
<path fill="none" stroke="grey" stroke-width="2" d="M67,-71.7C67,-63.98 67,-54.71 67,-46.11"/>
<polygon fill="grey" stroke="grey" stroke-width="2" points="70.5,-46.1 67,-36.1 63.5,-46.1 70.5,-46.1"/>
</g>
<!-- 2 -->
<g id="node3" class="node">
<title>2</title>
<path fill="none" stroke="#bed856" stroke-width="2" stroke-dasharray="5,2" d="M157.5,-540C157.5,-540 52.5,-540 52.5,-540 46.5,-540 40.5,-534 40.5,-528 40.5,-528 40.5,-516 40.5,-516 40.5,-510 46.5,-504 52.5,-504 52.5,-504 157.5,-504 157.5,-504 163.5,-504 169.5,-510 169.5,-516 169.5,-516 169.5,-528 169.5,-528 169.5,-534 163.5,-540 157.5,-540"/>
<text text-anchor="middle" x="105" y="-519.5" font-family="sans" font-size="10.00">identify_phased_genes</text>
</g>
<!-- 2&#45;&gt;1 -->
<g id="edge2" class="edge">
<title>2&#45;&gt;1</title>
<path fill="none" stroke="grey" stroke-width="2" d="M88.51,-503.77C66.16,-478.53 29,-429.05 29,-379 29,-379 29,-379 29,-233 29,-191.63 44.23,-145.72 55.41,-117.61"/>
<polygon fill="grey" stroke="grey" stroke-width="2" points="58.76,-118.67 59.31,-108.09 52.28,-116.02 58.76,-118.67"/>
</g>
<!-- 4 -->
<g id="node5" class="node">
<title>4</title>
<path fill="none" stroke="#d85656" stroke-width="2" stroke-dasharray="5,2" d="M145.5,-180C145.5,-180 86.5,-180 86.5,-180 80.5,-180 74.5,-174 74.5,-168 74.5,-168 74.5,-156 74.5,-156 74.5,-150 80.5,-144 86.5,-144 86.5,-144 145.5,-144 145.5,-144 151.5,-144 157.5,-150 157.5,-156 157.5,-156 157.5,-168 157.5,-168 157.5,-174 151.5,-180 145.5,-180"/>
<text text-anchor="middle" x="116" y="-159.5" font-family="sans" font-size="10.00">mrna_phased</text>
</g>
<!-- 2&#45;&gt;4 -->
<g id="edge5" class="edge">
<title>2&#45;&gt;4</title>
<path fill="none" stroke="grey" stroke-width="2" d="M97.31,-503.91C86.21,-477.62 67,-425.45 67,-379 67,-379 67,-379 67,-305 67,-262.78 86.6,-217.16 101.01,-189.33"/>
<polygon fill="grey" stroke="grey" stroke-width="2" points="104.23,-190.74 105.85,-180.27 98.05,-187.44 104.23,-190.74"/>
</g>
<!-- 5 -->
<g id="node6" class="node">
<title>5</title>
<path fill="none" stroke="#88d856" stroke-width="2" stroke-dasharray="5,2" d="M148.5,-396C148.5,-396 107.5,-396 107.5,-396 101.5,-396 95.5,-390 95.5,-384 95.5,-384 95.5,-372 95.5,-372 95.5,-366 101.5,-360 107.5,-360 107.5,-360 148.5,-360 148.5,-360 154.5,-360 160.5,-366 160.5,-372 160.5,-372 160.5,-384 160.5,-384 160.5,-390 154.5,-396 148.5,-396"/>
<text text-anchor="middle" x="128" y="-375.5" font-family="sans" font-size="10.00">locus_bed</text>
</g>
<!-- 2&#45;&gt;5 -->
<g id="edge9" class="edge">
<title>2&#45;&gt;5</title>
<path fill="none" stroke="grey" stroke-width="2" d="M107.77,-503.87C111.69,-479.67 118.9,-435.21 123.56,-406.39"/>
<polygon fill="grey" stroke="grey" stroke-width="2" points="127.07,-406.62 125.22,-396.19 120.16,-405.5 127.07,-406.62"/>
</g>
<!-- 8 -->
<g id="node9" class="node">
<title>8</title>
<path fill="none" stroke="#56d8c1" stroke-width="2" stroke-dasharray="5,2" d="M218.5,-468C218.5,-468 145.5,-468 145.5,-468 139.5,-468 133.5,-462 133.5,-456 133.5,-456 133.5,-444 133.5,-444 133.5,-438 139.5,-432 145.5,-432 145.5,-432 218.5,-432 218.5,-432 224.5,-432 230.5,-438 230.5,-444 230.5,-444 230.5,-456 230.5,-456 230.5,-462 224.5,-468 218.5,-468"/>
<text text-anchor="middle" x="182" y="-447.5" font-family="sans" font-size="10.00">phased_cds_bed</text>
</g>
<!-- 2&#45;&gt;8 -->
<g id="edge13" class="edge">
<title>2&#45;&gt;8</title>
<path fill="none" stroke="grey" stroke-width="2" d="M124.03,-503.7C133.54,-495.05 145.21,-484.45 155.57,-475.03"/>
<polygon fill="grey" stroke="grey" stroke-width="2" points="158.14,-477.42 163.19,-468.1 153.43,-472.24 158.14,-477.42"/>
</g>
<!-- 3 -->
<g id="node4" class="node">
<title>3</title>
<path fill="none" stroke="#d88d56" stroke-width="2" stroke-dasharray="5,2" d="M288.5,-617C288.5,-617 75.5,-617 75.5,-617 69.5,-617 63.5,-611 63.5,-605 63.5,-605 63.5,-588 63.5,-588 63.5,-582 69.5,-576 75.5,-576 75.5,-576 288.5,-576 288.5,-576 294.5,-576 300.5,-582 300.5,-588 300.5,-588 300.5,-605 300.5,-605 300.5,-611 294.5,-617 288.5,-617"/>
<text text-anchor="middle" x="182" y="-605" font-family="sans" font-size="10.00">phase_homozoygous</text>
<text text-anchor="middle" x="182" y="-594" font-family="sans" font-size="10.00">genome: S_lycopersicum_chromosomes.4.00</text>
<text text-anchor="middle" x="182" y="-583" font-family="sans" font-size="10.00">sample: ERR4102X</text>
</g>
<!-- 3&#45;&gt;2 -->
<g id="edge4" class="edge">
<title>3&#45;&gt;2</title>
<path fill="none" stroke="grey" stroke-width="2" d="M160.96,-575.69C151.61,-566.89 140.53,-556.45 130.7,-547.19"/>
<polygon fill="grey" stroke="grey" stroke-width="2" points="132.82,-544.39 123.14,-540.08 128.02,-549.48 132.82,-544.39"/>
</g>
<!-- 7 -->
<g id="node8" class="node">
<title>7</title>
<path fill="none" stroke="#d8bc56" stroke-width="2" stroke-dasharray="5,2" d="M289,-396C289,-396 191,-396 191,-396 185,-396 179,-390 179,-384 179,-384 179,-372 179,-372 179,-366 185,-360 191,-360 191,-360 289,-360 289,-360 295,-360 301,-366 301,-372 301,-372 301,-384 301,-384 301,-390 295,-396 289,-396"/>
<text text-anchor="middle" x="240" y="-375.5" font-family="sans" font-size="10.00">phased_cds_intersect</text>
</g>
<!-- 3&#45;&gt;7 -->
<g id="edge12" class="edge">
<title>3&#45;&gt;7</title>
<path fill="none" stroke="grey" stroke-width="2" d="M194.27,-575.68C208.54,-551.37 231.24,-508.4 240,-468 244.41,-447.65 244.18,-424.05 242.97,-406.27"/>
<polygon fill="grey" stroke="grey" stroke-width="2" points="246.45,-405.97 242.14,-396.29 239.48,-406.55 246.45,-405.97"/>
</g>
<!-- 4&#45;&gt;1 -->
<g id="edge3" class="edge">
<title>4&#45;&gt;1</title>
<path fill="none" stroke="grey" stroke-width="2" d="M103.89,-143.7C98.13,-135.47 91.14,-125.48 84.79,-116.42"/>
<polygon fill="grey" stroke="grey" stroke-width="2" points="87.58,-114.29 78.97,-108.1 81.84,-118.3 87.58,-114.29"/>
</g>
<!-- 5&#45;&gt;4 -->
<g id="edge6" class="edge">
<title>5&#45;&gt;4</title>
<path fill="none" stroke="grey" stroke-width="2" d="M127.04,-359.85C124.96,-322.83 120.05,-235.18 117.54,-190.39"/>
<polygon fill="grey" stroke="grey" stroke-width="2" points="121.02,-190.02 116.97,-180.23 114.03,-190.41 121.02,-190.02"/>
</g>
<!-- 6 -->
<g id="node7" class="node">
<title>6</title>
<path fill="none" stroke="#56c1d8" stroke-width="2" stroke-dasharray="5,2" d="M268,-324C268,-324 190,-324 190,-324 184,-324 178,-318 178,-312 178,-312 178,-300 178,-300 178,-294 184,-288 190,-288 190,-288 268,-288 268,-288 274,-288 280,-294 280,-300 280,-300 280,-312 280,-312 280,-318 274,-324 268,-324"/>
<text text-anchor="middle" x="229" y="-303.5" font-family="sans" font-size="10.00">phased_genomes</text>
</g>
<!-- 6&#45;&gt;4 -->
<g id="edge7" class="edge">
<title>6&#45;&gt;4</title>
<path fill="none" stroke="grey" stroke-width="2" d="M208.66,-287.93C197.49,-278.04 183.75,-264.99 173,-252 156.59,-232.17 141.05,-207.34 130.35,-188.95"/>
<polygon fill="grey" stroke="grey" stroke-width="2" points="133.37,-187.18 125.36,-180.24 127.29,-190.66 133.37,-187.18"/>
</g>
<!-- 9 -->
<g id="node10" class="node">
<title>9</title>
<path fill="none" stroke="#56d88a" stroke-width="2" stroke-dasharray="5,2" d="M264,-252C264,-252 194,-252 194,-252 188,-252 182,-246 182,-240 182,-240 182,-228 182,-228 182,-222 188,-216 194,-216 194,-216 264,-216 264,-216 270,-216 276,-222 276,-228 276,-228 276,-240 276,-240 276,-246 270,-252 264,-252"/>
<text text-anchor="middle" x="229" y="-231.5" font-family="sans" font-size="10.00">index_genomes</text>
</g>
<!-- 6&#45;&gt;9 -->
<g id="edge14" class="edge">
<title>6&#45;&gt;9</title>
<path fill="none" stroke="grey" stroke-width="2" d="M229,-287.7C229,-279.98 229,-270.71 229,-262.11"/>
<polygon fill="grey" stroke="grey" stroke-width="2" points="232.5,-262.1 229,-252.1 225.5,-262.1 232.5,-262.1"/>
</g>
<!-- 7&#45;&gt;6 -->
<g id="edge10" class="edge">
<title>7&#45;&gt;6</title>
<path fill="none" stroke="grey" stroke-width="2" d="M237.28,-359.7C236.07,-351.98 234.61,-342.71 233.26,-334.11"/>
<polygon fill="grey" stroke="grey" stroke-width="2" points="236.7,-333.44 231.69,-324.1 229.78,-334.53 236.7,-333.44"/>
</g>
<!-- 8&#45;&gt;7 -->
<g id="edge11" class="edge">
<title>8&#45;&gt;7</title>
<path fill="none" stroke="grey" stroke-width="2" d="M196.34,-431.7C203.29,-423.3 211.77,-413.07 219.4,-403.86"/>
<polygon fill="grey" stroke="grey" stroke-width="2" points="222.14,-406.04 225.83,-396.1 216.75,-401.57 222.14,-406.04"/>
</g>
<!-- 9&#45;&gt;4 -->
<g id="edge8" class="edge">
<title>9&#45;&gt;4</title>
<path fill="none" stroke="grey" stroke-width="2" d="M201.36,-215.88C186.58,-206.72 168.21,-195.34 152.3,-185.48"/>
<polygon fill="grey" stroke="grey" stroke-width="2" points="154.09,-182.48 143.75,-180.19 150.41,-188.43 154.09,-182.48"/>
</g>
</g>
</svg>
